# AST/ASF file generated using VICON BodyLanguage
# -----------------------------------------------
:version 1.10
:name VICON
:units
  mass 1.0
  length 0.45
  angle deg
:documentation
   .ast/.asf automatically generated from VICON data using
   VICON BodyBuilder and BodyLanguage model FoxedUp or BRILLIANT.MOD
:root
   order TX TY TZ RX RY RZ
   axis XYZ
   position 0 0 0  
   orientation 0 0 0 
:bonedata
  begin
     id 1 
     name lhipjoint
     direction 0.635376 -0.686425 0.353719 
     length 2.47244 
     axis 0 0 0  XYZ
  end
  begin
     id 2 
     name lfemur
     direction 0.34202 -0.939693 0  
     length 7.25268  
     axis 0 0 20  XYZ
    dof rx ry rz
    limits (-160.0 20.0)
           (-70.0 70.0)
           (-60.0 70.0)
  end
  begin
     id 3 
     name ltibia
     direction 0.34202 -0.939693 0   
     length 7.6767   
     axis 0 0 20   XYZ
    dof rx
    limits (-10.0 170.0)
  end
  begin
     id 4 
     name lfoot
     direction 0.0803374 -0.220725 0.972022   
     length 2.22945   
     axis -90 7.62852e-016 20   XYZ
    dof rx rz
    limits (-45.0 90.0)
           (-70.0 20.0)
  end
  begin
     id 5 
     name ltoes
     direction 1.53579e-011 -4.21994e-011 1   
     length 1.11848   
     axis -90 7.62852e-016 20   XYZ
    dof rx
    limits (-90.0 20.0)
  end
  begin
     id 6 
     name rhipjoint
     direction -0.664428 -0.664335 0.342336   
     length 2.55466  
     axis 0 0 0  XYZ 
  end
  begin
     id 7 
     name rfemur
     direction -0.34202 -0.939693 0   
     length 6.83172   
     axis 0 0 -20   XYZ
    dof rx ry rz
    limits (-160.0 20.0)
           (-70.0 70.0)
           (-70.0 60.0)
  end
  begin
     id 8 
     name rtibia
     direction -0.34202 -0.939693 0   
     length 7.62692   
     axis 0 0 -20   XYZ
    dof rx
    limits (-10.0 170.0)
 end
 begin
     id 9 
     name rfoot
     direction -0.0949276 -0.260811 0.960711   
     length 2.19684  
     axis -90 -7.62852e-016 -20   XYZ
    dof rx rz
    limits (-45.0 90.0)
           (-20.0 70.0)
  end
  begin
     id 10 
     name rtoes
     direction -1.53543e-011 -4.2183e-011 1   
     length 1.09848   
     axis -90 -7.62852e-016 -20   XYZ
    dof rx
    limits (-90.0 20.0)
  end
  begin
     id 11 
     name lowerback
     direction 0.0118782 0.999815 -0.0151555   
     length 2.15772   
     axis 0 0 0   XYZ
    dof rx ry rz
    limits (-20.0 45.0)
           (-30.0 30.0)
           (-30.0 30.0)
  end
  begin
     id 12 
     name upperback
     direction 0.00130825 0.999065 0.0432113   
     length 2.14863   
     axis 0 0 0   XYZ
    dof rx ry rz
    limits (-20.0 45.0)
           (-30.0 30.0)
           (-30.0 30.0)
  end
  begin
     id 13 
     name thorax
     direction -0.00347005 0.998773 0.0494011   
     length 2.14936   
     axis 0 0 0   XYZ
    dof rx ry rz
    limits (-20.0 45.0)
           (-30.0 30.0)
           (-30.0 30.0)
  end
  begin
     id 14 
     name lowerneck
     direction -0.0262159 0.99424 0.103921   
     length 1.69373   
     axis 0 0 0   XYZ
    dof rx ry rz
    limits (-20.0 45.0)
           (-30.0 30.0)
           (-30.0 30.0)
  end
  begin
     id 15 
     name upperneck
     direction 0.0353511 0.977394 -0.20845   
     length 1.70857   
     axis 0 0 0   XYZ
    dof rx ry rz
    limits (-20.0 45.0)
           (-30.0 30.0)
           (-30.0 30.0)
  end
  begin
     id 16
     name head
     direction 0.0139214 0.996594 -0.0812836  
     length 1.72777  
     axis 0 0 0   XYZ
    dof rx ry rz
    limits (-20.0 45.0)
           (-30.0 30.0)
           (-30.0 30.0)
  end
  begin
     id 17 
     name lclavicle
     direction 0.841247 0.537205 -0.0609508  
     length 3.55371  
     axis 0 0 0   XYZ
    dof ry rz
    limits (-20.0 10.0)
           (0.0 20.0)
  end
  begin
     id 18 
     name lhumerus
     direction 1 -4.48964e-011 1.60116e-018   
     length 4.91377   
     axis -180 -30 -90   XYZ
    dof rx ry rz
    limits (-60.0 90.0)
           (-90.0 90.0)
           (-90.0 90.0)
  end
  begin
     id 19
     name lradius
     direction 1 -4.48989e-011 -8.93847e-027   
     length 3.00291   
     axis -180 -30 -90   XYZ
    dof rx
    limits (-10.0 170.0)
  end
  begin
     id 20
     name lwrist
     direction 1 -4.48932e-011 -7.31504e-027   
     length 1.50145   
     axis 5.74121e-015 90 90   XYZ
    dof ry
    limits (-180.0 0.0)
 end
  begin
     id 21 
     name lhand
     direction 1 -4.48971e-011 -1.46301e-026   
     length 0.450922   
     axis 9.33524e-015 90 90   XYZ
    dof rx rz
    limits (-90.0 90.0)
           (-45.0 45.0)
  end
  begin
     id 22 
     name lfingers
     direction 1 -4.49039e-011 -2.92602e-026   
     length 0.363545   
     axis 1.86705e-014 90 90   XYZ
    dof rx
    limits (0.0 90.0)
  end
  begin
     id 23
     name lthumb
     direction 0.707107 -6.34941e-011 0.707107   
     length 0.52198   
     axis -90 45 2.85299e-015   XYZ
    dof rx rz
    limits (-45.0 45.0)
           (-45.0 45.0)
  end
  begin
     id 24 
     name rclavicle
     direction -0.825079 0.56158 -0.0622297   
     length 3.39909  
     axis 0 0 0   XYZ 
    dof ry rz
    limits (-10.0 20.0)
           (-20.0 0.0)
  end
  begin
     id 25 
     name rhumerus
     direction -1 -4.48965e-011 1.61691e-027  
     length 4.86725   
     axis -180 30 90   XYZ
    dof rx ry rz
    limits (-90.0 60.0)
           (-90.0 90.0)
           (-90.0 90.0)
  end
  begin
     id 26 
     name rradius
     direction -1 -4.48964e-011 -2.25776e-027   
     length 3.17144   
     axis -180 30 90   XYZ
    dof rx
    limits (-10.0 170.0)
  end
  begin
     id 27 
     name rwrist
     direction -1 -4.48961e-011 -7.31504e-027   
     length 1.58572   
     axis 5.74121e-015 -90 -90   XYZ
    dof ry
    limits (-180.0 0.0)
  end
  begin
     id 28
     name rhand
     direction -1 -4.49013e-011 -1.46301e-026   
     length 0.419368   
     axis 9.33524e-015 -90 -90   XYZ
    dof rx rz
    limits (-90.0 90.0)
           (-45.0 45.0)
  end
  begin
     id 29
     name rfingers
     direction -1 -4.489e-011 -2.92602e-026   
     length 0.338105   
     axis 1.86705e-014 -90 -90   XYZ
    dof rx
    limits (0.0 90.0)
  end
  begin
     id 30
     name rthumb
     direction -0.707107 -6.35022e-011 0.707107   
     length 0.485453   
     axis -90 -45 -2.85299e-015   XYZ
    dof rx rz
    limits (-45.0 45.0)
           (-45.0 45.0)
  end
:hierarchy
  begin
    root lhipjoint rhipjoint lowerback
    lhipjoint lfemur
    lfemur ltibia
    ltibia lfoot
    lfoot ltoes
    rhipjoint rfemur
    rfemur rtibia
    rtibia rfoot
    rfoot rtoes
    lowerback upperback
    upperback thorax
    thorax lowerneck lclavicle rclavicle
    lowerneck upperneck
    upperneck head
    lclavicle lhumerus
    lhumerus lradius
    lradius lwrist
    lwrist lhand lthumb
    lhand lfingers
    rclavicle rhumerus
    rhumerus rradius
    rradius rwrist
    rwrist rhand rthumb
    rhand rfingers
  end

#!OML:ASF H:\Swim 2\Project 1\Capture day 1\Session 1\male.ASF
:FULLY-SPECIFIED
:DEGREES
470
root 0.824929 14.9261 11.7131 105.437 26.5908 5.18954
lowerback -12.605 0.697335 12.4562
upperback -9.65343 -0.219228 -3.96836
thorax -3.49783 -0.903207 -11.4371
lowerneck -31.7403 -2.49284 1.32961
upperneck 45.4627 -3.76705 -0.954851
head 27.7193 -0.891228 -2.01981
rclavicle 2.27608e-014 -5.92751e-014
rhumerus -25.9422 28.2576 -81.6675
rradius 64.2392
rwrist -9.11572
rhand -31.3534 6.58738
rfingers 7.12502
rthumb -4.62442 -23.3421
lclavicle 2.27608e-014 -5.92751e-014
lhumerus -274.711 23.9833 339.961
lradius 36.2745
lwrist 60.496
lhand -35.2001 -0.849597
lfingers 7.12502
lthumb -8.33793 28.9658
rfemur -50.1926 1.87886 17.9673
rtibia 48.1155
rfoot 41.3574 7.63512
rtoes 29.4905
lfemur -47.786 -5.76175 -10.2789
ltibia 44.5319
lfoot -11.7067 -1.47976
ltoes -23.746
471
root 0.832346 14.9245 11.7341 105.612 26.7165 5.62055
lowerback -12.546 0.425361 13.0991
upperback -9.66595 -0.659839 -4.30218
thorax -3.72515 -1.20632 -12.2479
lowerneck -31.5537 -2.25344 1.54673
upperneck 45.1112 -3.57823 -0.837037
head 27.1624 -0.809359 -1.90513
rclavicle -2.46493e-014 -3.38928e-014
rhumerus -27.8607 29.7191 -84.0337
rradius 62.7758
rwrist -9.07747
rhand -31.4003 6.2924
rfingers 7.12502
rthumb -4.66964 -23.6361
lclavicle -2.46493e-014 -3.38928e-014
lhumerus -274.254 23.3998 340.367
lradius 36.2153
lwrist 59.3832
lhand -35.2377 -1.07215
lfingers 7.12502
lthumb -8.37422 28.7418
rfemur -50.9132 2.3506 17.6004
rtibia 45.9942
rfoot 40.776 6.85859
rtoes 29.2918
lfemur -46.9224 -5.57116 -10.2076
ltibia 45.6162
lfoot -11.8842 -2.35093
ltoes -24.4481
472
root 0.842587 14.9258 11.759 105.783 26.8533 6.14569
lowerback -12.4658 0.135279 13.7447
upperback -9.65127 -1.12414 -4.60508
thorax -3.9587 -1.52317 -13.0303
lowerneck -31.3577 -2.01642 1.73241
upperneck 44.7614 -3.37813 -0.706326
head 26.6363 -0.724901 -1.77733
rclavicle -2.10712e-014 -7.81721e-014
rhumerus -29.8185 31.1418 -86.3507
rradius 61.2989
rwrist -9.01037
rhand -31.3626 6.01243
rfingers 7.12502
rthumb -4.63328 -23.9169
lclavicle -2.10712e-014 -7.81721e-014
lhumerus -273.969 22.8906 340.585
lradius 36.1877
lwrist 58.5954
lhand -35.3043 -1.25665
lfingers 7.12502
lthumb -8.4384 28.5548
rfemur -51.4986 2.78633 17.2212
rtibia 43.7716
rfoot 40.1537 5.86289
rtoes 29.1623
lfemur -45.9991 -5.40473 -10.1293
ltibia 46.6265
lfoot -12.0907 -3.09253
ltoes -25.5307
473
root 0.855138 14.9294 11.7871 105.938 26.9983 6.75507
lowerback -12.3604 -0.16973 14.3788
upperback -9.60732 -1.60549 -4.87689
thorax -4.19489 -1.84849 -13.7728
lowerneck -31.1512 -1.79095 1.87364
upperneck 44.4207 -3.17883 -0.552347
head 26.1453 -0.64241 -1.63171
rclavicle 4.09496e-014 -3.50855e-014
rhumerus -31.8282 32.5116 -88.6183
rradius 59.832
rwrist -8.99188
rhand -31.2872 5.76406
rfingers 7.12502
rthumb -4.56045 -24.1669
lclavicle 4.09496e-014 -3.50855e-014
lhumerus -273.804 22.4337 340.697
lradius 36.1798
lwrist 58.0266
lhand -35.3985 -1.35006
lfingers 7.12502
lthumb -8.52932 28.4577
rfemur -51.9274 3.16557 16.8478
rtibia 41.4747
rfoot 39.4983 4.67164
rtoes 29.1174
lfemur -45.0209 -5.26876 -10.0406
ltibia 47.5747
lfoot -12.1379 -3.74723
ltoes -26.1313
474
root 0.869782 14.9352 11.818 106.072 27.1512 7.43921
lowerback -12.227 -0.48641 14.9985
upperback -9.53601 -2.09818 -5.11949
thorax -4.43431 -2.17878 -14.4733
lowerneck -30.9296 -1.58275 1.9595
upperneck 44.0853 -2.98112 -0.377881
head 25.6783 -0.564639 -1.46802
rclavicle -4.92986e-014 -2.95195e-014
rhumerus -33.8986 33.8038 -90.8443
rradius 58.3897
rwrist -9.08747
rhand -31.2176 5.59168
rfingers 7.12502
rthumb -4.49328 -24.3407
lclavicle -4.92986e-014 -2.95195e-014
lhumerus -273.715 22.0061 340.779
lradius 36.18
lwrist 57.5764
lhand -35.5036 -1.31548
lfingers 7.12502
lthumb -8.63077 28.4881
rfemur -52.1923 3.45181 16.5127
rtibia 39.1376
rfoot 38.8258 3.3855
rtoes 29.1446
lfemur -44.0005 -5.16495 -9.93785
ltibia 48.4718
lfoot -12.0505 -4.3283
ltoes -26.3483
475
root 0.886049 14.9427 11.851 106.185 27.2991 8.17016
lowerback -12.07 -0.808047 15.5847
upperback -9.44349 -2.59111 -5.33895
thorax -4.67474 -2.50683 -15.1245
lowerneck -30.6965 -1.37832 2.0075
upperneck 43.7499 -2.75496 -0.221146
head 25.2265 -0.483333 -1.30352
rclavicle 1.43125e-014 6.41081e-014
rhumerus -36.0493 35.0091 -93.0419
rradius 57.0015
rwrist -9.35041
rhand -31.2282 5.49016
rfingers 7.12502
rthumb -4.5035 -24.442
lclavicle 1.43125e-014 6.41081e-014
lhumerus -273.668 21.5898 340.886
lradius 36.1812
lwrist 57.1667
lhand -35.6064 -1.15179
lfingers 7.12502
lthumb -8.73002 28.6477
rfemur -52.3034 3.63906 16.2185
rtibia 36.7959
rfoot 38.1675 2.0762
rtoes 29.1468
lfemur -42.9603 -5.10089 -9.8315
ltibia 49.3329
lfoot -11.7979 -4.78517
ltoes -26.1988
476
root 0.903302 14.9518 11.885 106.275 27.4424 8.93632
lowerback -11.8868 -1.12984 16.1338
upperback -9.33519 -3.07619 -5.53677
thorax -4.9183 -2.82821 -15.7235
lowerneck -30.4481 -1.19637 1.99083
upperneck 43.4266 -2.5373 -0.0379474
head 24.8004 -0.409365 -1.11806
rclavicle -2.22639e-014 -6.0033e-014
rhumerus -38.2868 36.086 -95.2005
rradius 55.6956
rwrist -9.75526
rhand -31.2465 5.41888
rfingers 7.12502
rthumb -4.52118 -24.5129
lclavicle -2.22639e-014 -6.0033e-014
lhumerus -273.639 21.1722 341.053
lradius 36.1808
lwrist 56.7584
lhand -35.6932 -0.903169
lfingers 7.12502
lthumb -8.81375 28.8928
rfemur -52.2685 3.70979 15.9896
rtibia 34.4871
rfoot 37.5592 0.828799
rtoes 29.0698
lfemur -41.9165 -5.08894 -9.71416
ltibia 50.1701
lfoot -11.4184 -5.12434
ltoes -25.777
